<svg width="25" height="24" viewBox="0 0 25 24" fill="none" xmlns="http://www.w3.org/2000/svg">
<path d="M10.5365 21.9629C9.07384 21.8638 7.62491 21.5148 6.65553 21.028C4.64924 20.0207 4.71938 18.5969 6.82425 17.6033C7.42145 17.3214 8.81509 16.9034 9.15917 16.903C9.25507 16.9029 9.39321 16.9939 9.46616 17.1052C9.59533 17.3024 9.59292 17.3089 9.37347 17.3557C8.1834 17.6096 7.02888 18.1474 6.63847 18.6298C5.77528 19.6963 6.88573 20.7964 9.35433 21.3204C10.5907 21.5828 12.7833 21.5835 14.0052 21.3219C16.4778 20.7926 17.584 19.696 16.7211 18.6298C16.329 18.1454 15.2352 17.6367 13.9861 17.3579C13.7667 17.3089 13.7642 17.3023 13.8934 17.1052C14.0588 16.8527 14.1865 16.8531 15.1505 17.1095C16.9991 17.6012 18.1721 18.472 18.1721 19.3527C18.1721 20.9882 14.529 22.2336 10.5365 21.9629ZM11.0144 18.4822C9.74039 16.7757 8.56074 14.7681 7.73334 12.8981C6.1134 9.23684 5.84828 6.93385 6.82379 4.99713C7.3906 3.87181 8.28342 3.00836 9.43398 2.4728C10.261 2.08786 10.6915 1.99885 11.7206 2.00001C12.7545 2.00125 13.3761 2.15356 14.2581 2.62203C15.9769 3.53492 17.1105 5.43025 17.1105 7.39121C17.1105 9.06194 16.4616 11.2327 15.18 13.8489C14.3467 15.5502 12.925 17.8154 11.862 19.1355L11.6753 19.3674L11.0144 18.4822ZM13.018 11.5168C14.8272 10.9048 15.9672 9.30827 15.9672 7.3865C15.9672 5.01114 14.0232 3.09779 11.6145 3.1024C10.1416 3.10518 8.60034 4.04076 7.90531 5.35388C6.91916 7.21701 7.38178 9.54102 8.98482 10.777C10.187 11.7038 11.664 11.9748 13.018 11.5168ZM9.27502 8.87922L9.27939 7.55217L10.4315 6.61302C11.0652 6.09649 11.6274 5.67387 11.681 5.67387C11.7345 5.67387 12.2956 6.09649 12.9279 6.61302L14.0774 7.55217L14.0832 8.87922L14.0889 10.2063H13.2314H12.3739L12.3739 9.14463L12.3739 8.08299H11.6798H10.9856L10.9856 9.14463L10.9856 10.2063H10.1282H9.27067L9.27502 8.87922ZM8.66939 7.39451C8.54325 7.20201 8.5507 7.19092 9.11003 6.73901L9.67897 6.27932L9.67897 5.50702L9.67897 4.73473H10.0424H10.4058L10.4303 5.18417L10.4548 5.63361L11.0544 5.14316C11.3919 4.86708 11.6953 4.67705 11.7485 4.7084C11.8005 4.73902 12.5112 5.31399 13.3277 5.98609C14.7941 7.1931 14.8108 7.21043 14.6871 7.39921C14.5375 7.62744 14.6936 7.72497 13.0367 6.36803C12.3512 5.80658 11.7406 5.34721 11.6798 5.34721C11.619 5.34721 11.0083 5.80658 10.3228 6.36803C8.66399 7.72654 8.82247 7.62815 8.66939 7.39451Z" fill="#4D4D4D"/>
</svg>
