<svg width="41" height="40" viewBox="0 0 41 40" fill="none" xmlns="http://www.w3.org/2000/svg">
<path d="M17.1639 39.8505C4.8564 37.9867 -2.80797 25.6801 0.967578 13.8443C3.3177 6.47697 9.77 1.12636 17.5358 0.105013C19.1685 -0.109723 22.5648 0.0199085 24.1407 0.357122C33.139 2.28252 39.5714 9.83593 40.0785 19.0724C40.3906 24.7554 38.0618 30.5099 33.816 34.5469C31.1046 37.125 27.6491 38.9134 23.8879 39.6852C22.2425 40.0228 18.8521 40.1062 17.1639 39.8505ZM22.9278 37.8458C24.6281 37.57 26.1646 37.0879 27.711 36.3449C30.0262 35.2327 31.713 34.0047 33.3204 32.2612C34.202 31.3048 35.4262 29.6415 35.3227 29.5406C35.2179 29.4386 20.2745 23.4031 20.0843 23.386C19.9034 23.3698 5.01959 29.4116 4.81792 29.5832C4.66885 29.71 6.24715 31.7118 7.38437 32.8383C9.96904 35.3986 13.4265 37.2008 16.9402 37.8193C18.3548 38.0683 21.4708 38.0821 22.9278 37.8458ZM10.7205 23.4773L17.2552 18.3713L18.3518 10.5335C18.955 6.22262 19.451 2.51084 19.4541 2.28506L19.4596 1.87454L18.7353 1.94762C12.4805 2.57864 7.51029 5.70453 4.40433 10.9607C1.89216 15.212 1.29075 20.5772 2.79007 25.3616C3.05791 26.2163 4.06194 28.5832 4.15664 28.5832C4.17271 28.5832 7.12647 26.2856 10.7205 23.4773ZM36.495 27.481C37.0518 26.2503 37.5249 24.7944 37.8151 23.4183C38.1384 21.8851 38.1326 17.9932 37.8048 16.4897C37.2755 14.0627 36.3622 11.9045 34.9795 9.8131C34.0558 8.4162 31.5811 5.94472 30.1675 5.00749C27.5614 3.2796 24.5985 2.24195 21.4289 1.94714L20.5636 1.86666L20.6371 2.28112C20.6776 2.50907 21.1994 6.21025 21.7967 10.506C22.4011 14.8523 22.9478 18.3785 23.0294 18.4565C23.11 18.5335 25.5285 20.4285 28.4039 22.6674C31.2792 24.9063 34.1137 27.1226 34.7026 27.5924C35.2915 28.0622 35.8363 28.449 35.9133 28.4519C35.9903 28.4548 36.252 28.0179 36.495 27.481Z" fill="#464646"/>
</svg>
