<svg width="40" height="40" viewBox="0 0 40 40" fill="none" xmlns="http://www.w3.org/2000/svg">
<path d="M5.13509 39.6845C5.1349 39.5492 5.26813 38.6724 5.43118 37.7362C5.78206 35.7213 5.86684 35.6586 9.09137 35.0288L11.431 34.5719L11.572 32.4113C11.7071 30.3396 11.7939 30.103 13.6839 26.6574C14.768 24.681 15.7873 22.852 15.9492 22.5928C16.1929 22.2026 16.0832 21.9852 15.3109 21.3275C13.997 20.2088 12.3001 19.8964 8.14486 20.0083C6.19445 20.0609 4.59871 20.0134 4.59877 19.9029C4.59896 19.5584 3.26989 19.6827 2.45685 20.1031C1.72802 20.48 1.65585 20.4683 1.26448 19.9095C0.708341 19.1155 0.739484 18.2855 1.37195 17.0458C1.99333 15.8278 3.16883 15.2722 6.11721 14.8031C7.19781 14.6312 8.08193 14.4015 8.08193 14.2926C8.08193 13.9801 6.12969 12.7358 5.63921 12.7358C5.39565 12.7358 4.99134 12.4229 4.74076 12.0405C4.35119 11.4459 4.15466 11.3696 3.38478 11.5141C2.64725 11.6524 2.43064 11.5825 2.18716 11.1276C1.79601 10.3967 2.01542 9.78585 3.01199 8.83107C3.77151 8.1034 3.97814 8.0471 5.88912 8.0471C7.91972 8.0471 8.00246 8.07464 11.9182 10.0566L15.8884 12.066L16.5386 11.2622C17.5905 9.96181 17.2179 9.09064 15.9618 9.91367C15.5878 10.1587 15.0632 10.2804 14.7749 10.1888C13.8547 9.89681 12.6549 7.70065 13.3735 7.62368C13.484 7.61183 14.2131 7.57001 14.9937 7.53073C15.7743 7.49144 16.5267 7.34548 16.6658 7.20643C17.024 6.8482 16.21 5.76978 15.5813 5.76978C14.9581 5.76978 13.7084 6.31804 13.7084 6.59147C13.7084 7.12128 12.4985 6.37811 11.8071 5.42364C10.7054 3.9028 10.7871 3.49179 12.3018 2.93464C13.0018 2.67719 13.8759 2.19134 14.2443 1.85499C15.0381 1.13018 16.399 0.531055 18.1352 0.14196C19.6963 -0.207888 21.3068 0.065607 24.5007 1.22295C26.5422 1.96271 26.9001 2.18738 27.2071 2.92206C27.4016 3.38771 28.0053 4.15895 28.5486 4.63595L29.5363 5.50319L30.537 4.45119C31.6636 3.26691 32.5535 2.94724 33.979 3.21468C35.6622 3.53045 36.2823 4.45431 37.2359 8.06678C37.7056 9.84589 38.0898 11.4434 38.0898 11.6168C38.0898 12.6237 35.7746 10.9072 34.7312 9.1268C34.3579 8.48974 33.9632 7.44365 33.8543 6.80216C33.6087 5.35629 32.7655 5.05945 32.0418 6.16404C31.2442 7.38127 31.6588 9.25724 33.6809 13.5812C36.9627 20.599 36.9797 21.023 34.0919 23.8448C33.3436 24.5761 32.7313 25.267 32.7313 25.3802C32.7313 25.4934 33.3172 26.4625 34.0334 27.5337C36.522 31.2562 39.1615 36.316 39.1615 37.3642C39.1615 37.6106 38.6732 38.2889 38.0763 38.8714L36.9911 39.9305H32.0278H27.0646L27.233 38.7248C27.5722 36.2973 27.8455 35.8148 29.0664 35.4878C31.824 34.7492 32.0107 34.3384 29.9032 33.6461C29.1746 33.4067 27.3944 32.3344 25.9473 31.2631C24.5002 30.1918 23.2112 29.3526 23.0829 29.3983C22.9547 29.444 21.5163 30.9628 19.8866 32.7735L16.9235 36.0657V38.0329V40L11.0295 39.9653C7.65484 39.9454 5.13529 39.8253 5.13509 39.6845ZM32.6186 20.9095C34.2679 19.6516 34.2656 19.5021 32.5439 16.0817C31.6918 14.3888 30.903 13.0038 30.7912 13.0038C30.6793 13.0038 30.5878 13.3468 30.5878 13.766C30.5878 14.6855 30.0094 15.2361 28.5784 15.679C27.1475 16.1218 26.301 16.6778 26.301 17.1747C26.301 17.3988 27.1132 18.5526 28.106 19.7386C29.8225 21.7891 29.9551 21.8877 30.8102 21.749C31.3047 21.6687 32.1185 21.291 32.6186 20.9095ZM17.0441 2.25654C17.496 1.83434 16.5181 1.99635 15.97 2.43449C15.4702 2.83406 15.476 2.84333 16.1198 2.67231C16.4882 2.57439 16.9041 2.38734 17.0441 2.25654Z" fill="#464646"/>
</svg>
