<svg width="17" height="18" viewBox="0 0 17 18" fill="none" xmlns="http://www.w3.org/2000/svg">
<path d="M11.5327 17.9249C10.3714 17.7377 9.61292 17.4149 8.28182 16.5411C5.07252 14.4345 1.27658 9.56838 0.281405 6.28525C-0.31709 4.3108 0.0520876 2.3779 1.26462 1.13744C2.51384 -0.140547 4.89447 -0.405709 5.45473 0.670736C5.81447 1.3619 6.25633 3.34226 6.284 4.38738L6.30883 5.32449L5.43819 5.766C4.35775 6.31389 4.2892 6.60361 4.9221 7.94736C5.80386 9.8195 7.30496 11.5343 9.09688 12.7166C10.0367 13.3366 10.3713 13.2775 10.9297 12.3928C11.4089 11.6336 11.8075 11.4827 12.6704 11.7337C13.467 11.9654 15.9501 13.1296 16.2795 13.4258C16.6861 13.7914 16.6125 14.7195 16.0951 15.7481C15.2247 17.4787 13.5932 18.2571 11.5327 17.9249Z" fill="#4D4D4D"/>
</svg>
