<svg width="32" height="40" viewBox="0 0 32 40" fill="none" xmlns="http://www.w3.org/2000/svg">
<path d="M11.5904 39.8767C11.3409 39.7383 0.396887 20.8287 0.249471 20.2813C0.163863 19.9636 0.17443 19.856 0.32571 19.4988C0.61987 18.8043 11.2329 0.405054 11.4601 0.19563L11.6724 0H15.9182C19.8346 0 20.1783 0.0117625 20.3464 0.152155C20.5073 0.286539 30.4632 17.4021 31.3238 19.024C31.9274 20.1615 32.3637 19.2388 26.0258 30.2283C22.0398 37.1398 20.4441 39.8332 20.2949 39.9011C19.9737 40.0475 11.8572 40.0247 11.5904 39.8767ZM13.2214 37.0324C13.674 36.247 16.032 32.1654 18.4615 27.962C20.8909 23.7587 22.8787 20.3058 22.8787 20.289C22.8787 20.2722 22.6146 20.2596 22.2918 20.2609L21.7049 20.2633L19.0749 24.8473C15.8274 30.5078 16.132 30.0139 15.9094 29.9805C15.7686 29.9594 15.0838 28.8462 12.9372 25.1492L10.148 20.3454H9.6011C9.30031 20.3454 9.05424 20.3608 9.05424 20.3795C9.05424 20.3982 10.4236 22.7842 12.0974 25.6815C13.7711 28.5789 15.1405 31.0024 15.1405 31.0671C15.1405 31.1318 14.4558 32.7539 13.6189 34.6718C12.7821 36.5898 12.0974 38.2135 12.0974 38.2801C12.0974 38.4351 12.1915 38.5293 12.3077 38.4906C12.3577 38.4739 12.7688 37.8177 13.2214 37.0324ZM18.6072 24.5688L21.2279 20.0106L18.5972 15.4429C16.6165 12.0038 15.9426 10.9012 15.8699 10.9804C15.7171 11.1469 10.6627 19.944 10.6627 20.0435C10.6627 20.1616 15.8639 29.1255 15.933 29.1264C15.9623 29.1267 17.1657 27.0758 18.6072 24.5688ZM9.03252 19.5846C9.12276 19.4531 11.5023 15.3597 14.3204 10.4882C17.1386 5.61665 19.4958 1.61085 19.5588 1.5864C19.9213 1.44568 19.773 1.87094 18.2744 5.26841C17.4115 7.22456 16.7055 8.87563 16.7055 8.93746C16.7055 8.9993 18.0832 11.4349 19.7671 14.3499L22.8288 19.6498H26.9488H31.0688L30.9048 19.3673C30.8147 19.2119 28.339 14.9276 25.4034 9.84666L20.0659 0.608624H15.9198H11.7738L6.33204 10.064C3.33906 15.2645 0.864485 19.5879 0.832997 19.6716C0.778997 19.8151 1.00458 19.8237 4.82212 19.8237H8.86851L9.03252 19.5846Z" fill="#464646"/>
</svg>
