<svg width="52" height="33" viewBox="0 0 52 33" fill="none" xmlns="http://www.w3.org/2000/svg">
<path d="M21.756 31.8589C14.5789 31.2326 7.73487 28.3691 3.77324 24.3352C2.15831 22.6909 1.25377 21.3005 0.534515 19.3572C0.13992 18.291 0.051742 17.7015 0.050358 16.12C0.047958 12.8095 1.13033 10.3973 3.86992 7.61173C10.9412 0.421811 25.7489 -2.06549 37.805 1.91158C47.1647 4.99912 52.6328 11.7885 51.0294 18.3314C48.8732 27.1296 35.9571 33.0983 21.756 31.8589ZM22.336 28.5919C22.336 28.4856 22.2674 28.3986 22.1835 28.3986C21.9466 28.3986 20.844 26.4848 20.3399 25.1985C19.4534 22.9364 18.8555 19.5085 18.8555 16.6876V15.3114L17.7437 15.0661C13.4255 14.1131 9.70988 11.9744 8.64974 9.83163L8.26671 9.05746L7.19443 10.2156C3.2109 14.5183 3.86027 19.833 8.86044 23.8508C11.4345 25.9191 14.982 27.4584 19.1456 28.3135C21.5371 28.8047 22.336 28.8744 22.336 28.5919ZM32.6207 28.1948C42.4051 26.2162 48.4087 19.8239 46.2433 13.6901C45.7215 12.2121 45.1171 11.2683 43.8674 9.98004L42.9681 9.05293L42.6211 9.78273C41.6362 11.854 38.5037 13.7792 34.4136 14.8269L32.3909 15.345L32.3871 17.0861C32.3773 21.2213 31.1184 25.8302 29.3714 28.1206L28.8321 28.8277L29.7897 28.7007C30.3164 28.6308 31.5903 28.4032 32.6207 28.1948ZM26.9031 23.6767C27.2349 23.3294 27.7003 22.5312 27.9374 21.903C28.4149 20.6379 28.9084 17.9486 28.9099 16.6034L28.9105 15.7333L25.6115 15.7905L22.3125 15.8477L22.439 17.5225C22.6866 20.8025 23.6506 23.3871 24.9124 24.1545C25.6622 24.6105 26.1147 24.502 26.9031 23.6767ZM28.4289 11.542C28.5006 11.4701 28.4141 10.9045 28.2363 10.2852C27.3976 7.36245 25.7667 6.19324 24.4434 7.56608C23.9546 8.07317 23.022 10.0503 22.8542 10.9351C22.7545 11.4613 22.7998 11.5645 23.1652 11.6432C23.7995 11.7799 28.2772 11.6938 28.4289 11.542ZM19.616 9.50967C20.1057 7.55743 21.103 5.29687 21.9419 4.23765C22.265 3.82963 22.5294 3.45925 22.5294 3.41458C22.5294 3.26754 18.196 3.97429 17.0439 4.30923C13.2967 5.39857 11.6872 7.04239 12.8814 8.5605C13.6226 9.50287 16.4021 10.6728 19.0735 11.1669C19.1403 11.1792 19.3843 10.4335 19.616 9.50967ZM33.853 10.7882C36.8989 9.99241 38.7719 8.7462 38.7719 7.5154C38.7719 5.85193 35.4374 4.24984 30.6023 3.5902C28.7299 3.33476 28.4498 3.37903 29.0078 3.84215C29.8978 4.58077 31.3233 7.76194 31.8018 10.0775C31.9282 10.689 32.096 11.1893 32.1748 11.1893C32.2537 11.1893 33.0088 11.0088 33.853 10.7882Z" fill="#464646"/>
</svg>
