<svg width="37" height="40" viewBox="0 0 37 40" fill="none" xmlns="http://www.w3.org/2000/svg">
<path d="M8.66794 36.347L8.63592 32.694L7.16754 32.1324C4.03334 30.9336 2.19927 28.9255 1.06315 25.4489C-0.120936 21.8254 -0.316548 17.2799 0.479371 11.8835C0.807943 9.65583 1.09685 8.5663 1.68721 7.32868C3.51413 3.4987 7.29228 1.18845 13.2946 0.231038C15.034 -0.0463985 20.6639 -0.0832372 22.491 0.170866C27.9337 0.927811 30.9961 2.17626 33.1368 4.51088C34.808 6.33343 35.6297 8.41881 36.2496 12.4109C36.5185 14.1428 36.5518 19.6786 36.3041 21.4862C35.8144 25.0606 34.6433 28.1046 33.1172 29.77C31.1901 31.8732 28.4749 33.0409 24.5345 33.4611C22.9215 33.6331 19.3112 33.8287 17.7507 33.8287H16.4254L8.69998 40L8.66794 36.347Z" fill="#9069AE"/>
<path d="M19.241 6.02388C18.3776 6.02979 17.5027 6.12669 17.1102 6.2907C16.6124 6.4987 16.3904 6.93827 16.559 7.38187C16.7518 7.88891 17.0615 7.96796 18.2505 7.81343C22.2555 7.29289 25.9722 9.94044 26.7778 13.888C27.0018 14.9859 27.0163 15.6835 26.8366 16.7153C26.6894 17.5606 26.7949 17.9145 27.2483 18.0972C27.6561 18.2615 27.7775 18.2404 28.1114 17.9469C28.4845 17.6189 28.6621 16.8014 28.6621 15.4143C28.6621 10.7973 25.305 6.88913 20.6758 6.11676C20.2727 6.04951 19.759 6.02033 19.241 6.02388ZM10.5721 7.78932C9.72861 7.7762 8.60457 8.27994 7.86843 9.08539C6.7726 10.2844 6.71069 11.288 7.59735 13.4775C9.7851 18.8798 13.5312 23.2408 18.6173 26.3066C19.8486 27.0488 21.9862 28.1314 22.8539 28.4521C23.0868 28.5382 23.5548 28.6123 23.8935 28.617C25.1268 28.6341 26.8133 27.4422 27.4967 26.0707C27.8896 25.2824 27.9035 24.6801 27.5414 24.1361C27.2286 23.6662 24.3955 21.4899 23.5844 21.0965C22.5156 20.5782 21.368 20.8647 20.7944 21.7928C20.1067 22.9056 19.2899 23.0087 17.7315 22.1797C15.633 21.0633 14.3246 19.7602 13.3479 17.8136C12.5204 16.1641 12.6132 15.6538 13.9629 14.4321C14.9368 13.5505 15.0302 13.2114 14.574 12.215C13.9159 10.7773 12.2206 8.58752 11.2975 7.98264C11.1034 7.85547 10.8533 7.79369 10.5721 7.78932ZM19.132 8.65975C17.8341 8.65975 17.4087 8.88128 17.4087 9.55736C17.4087 10.243 17.693 10.3774 19.1873 10.3985C20.3851 10.4154 20.5628 10.4493 21.3122 10.8031C22.407 11.3199 23.3646 12.2421 23.8519 13.249C24.2024 13.9731 24.241 14.1693 24.2828 15.436C24.308 16.2014 24.378 16.8792 24.4383 16.9424C24.4986 17.0057 24.5479 17.1481 24.5479 17.2589C24.5479 17.3697 24.661 17.604 24.7989 17.7793C25.1119 18.1772 25.7355 18.2154 26.0603 17.8566C26.2787 17.6153 26.3375 17.0192 26.1697 16.7477C26.1209 16.6687 26.0685 16.0554 26.0534 15.3847C26.0082 13.3702 25.3411 11.8567 23.9087 10.5183C22.5307 9.23084 21.0633 8.65975 19.132 8.65975ZM19.259 11.232C18.753 11.2245 18.473 11.4185 18.3219 11.8482C18.1245 12.4095 18.4375 12.8126 19.167 12.937C19.4978 12.9934 19.9772 13.1262 20.2324 13.2322C21.0639 13.5776 21.7648 14.6612 21.7648 15.6012C21.7648 15.7765 21.8737 16.0289 22.0068 16.162C22.366 16.5212 23.0356 16.4877 23.2911 16.0978C23.7812 15.3498 23.1713 13.459 22.1238 12.4792C21.4143 11.8155 20.8118 11.5055 19.8439 11.3055C19.6214 11.2596 19.4276 11.2346 19.259 11.232Z" fill="white"/>
</svg>
