<svg width="40" height="40" viewBox="0 0 40 40" fill="none" xmlns="http://www.w3.org/2000/svg">
<path d="M18.8488 39.9357C14.7341 39.7128 10.7183 38.1691 7.42722 35.5452C6.62144 34.9028 5.04302 33.3113 4.36708 32.4597C2.47494 30.076 1.10436 27.2291 0.467244 24.3592C-0.148668 21.5848 -0.162265 18.5084 0.429132 15.7353C1.57374 10.3681 4.98795 5.61354 9.73873 2.77091C11.9518 1.44673 14.3791 0.577924 17.0483 0.154583C17.8619 0.025554 18.2784 0.00328955 19.9365 0.000261555C22.0023 -0.00357844 22.3882 0.0309183 24.0836 0.370257C31.459 1.84646 37.5152 7.64144 39.3899 15.0163C39.8678 16.8962 40.0265 18.3965 39.9717 20.5175C39.9079 22.9893 39.4942 25.0921 38.6523 27.2245C36.0143 33.9061 30.0888 38.6565 23.041 39.7398C22.3475 39.8464 19.9516 40.0347 19.8006 39.9945C19.7819 39.9895 19.3536 39.963 18.8488 39.9357ZM22.588 38.0014C26.6623 37.3627 30.108 35.6191 32.9455 32.7604C35.6651 30.0204 37.4313 26.4878 38.0293 22.592C38.2281 21.2973 38.2462 18.8538 38.0666 17.5745C37.6091 14.3167 36.4206 11.4626 34.427 8.83481C33.7596 7.95503 31.9925 6.18988 31.1043 5.51562C26.978 2.3834 21.9518 1.1459 16.8652 2.00981C13.4831 2.58423 10.0839 4.27545 7.59719 6.621C4.46973 9.57089 2.61285 13.1226 1.94351 17.435C1.77098 18.5466 1.7698 21.3634 1.94135 22.4659C2.5869 26.6132 4.3284 30.0715 7.2073 32.9229C10.2256 35.9125 14.0255 37.668 18.4748 38.1283C19.1188 38.1949 21.9009 38.1091 22.588 38.0014ZM18.6831 34.0861C18.0352 34.0243 16.5062 33.7443 16.2154 33.6343C16.0844 33.5847 16.1452 33.428 17.2252 31.032C19.5495 25.8755 19.9594 24.9813 19.999 24.9813C20.0212 24.9813 20.9083 26.9116 21.9703 29.2707C23.434 32.5221 23.8797 33.5734 23.8124 33.6151C23.6925 33.6892 22.4714 33.9416 21.8401 34.0228C21.0473 34.1248 19.4288 34.1572 18.6831 34.0861ZM26.4539 32.3815C26.5241 32.2189 27.951 29.0571 29.6247 25.3553C31.2984 21.6535 32.8992 18.1098 33.1821 17.4805C33.7516 16.2139 33.7257 16.2257 33.9016 17.1532C34.182 18.6313 34.2382 20.5307 34.0424 21.9174C33.413 26.3771 30.7574 30.1988 26.7176 32.4583L26.3262 32.6772L26.4539 32.3815ZM12.7686 32.1549C7.61367 29.0885 4.93832 23.1325 6.07351 17.2501C6.15107 16.8482 6.23727 16.4787 6.26507 16.429C6.29734 16.3714 6.44117 16.6167 6.66296 17.1078C8.9646 22.2037 13.6139 32.5434 13.6139 32.5662C13.6139 32.641 13.4589 32.5656 12.7686 32.1549ZM14.5206 24.8299C14.2154 24.1467 12.7546 20.9021 11.2743 17.6199C9.79409 14.3376 8.58297 11.6186 8.58297 11.5775C8.58297 11.4667 9.49267 10.4032 10.0777 9.83007C11.016 8.9109 12.3623 7.90122 12.4265 8.06854C12.4454 8.11798 13.6188 10.7275 15.0339 13.8675L17.6068 19.5765H20.0051H22.4033L23.96 16.1092C24.8162 14.2023 25.9771 11.6171 26.5398 10.3645C27.1025 9.11185 27.5838 8.06483 27.6095 8.03775C27.6352 8.01068 27.9919 8.23739 28.4023 8.54157C29.2053 9.13665 30.6795 10.5607 31.1534 11.1989L31.4449 11.5915L31.2279 12.0827C29.552 15.878 24.9295 25.9904 24.8891 25.95C24.8595 25.9204 24.2849 24.6731 23.6122 23.1782L22.389 20.4603H19.9972H17.6054L16.429 23.0777C15.782 24.5173 15.2127 25.78 15.1641 25.8837C15.0778 26.0675 15.0616 26.041 14.5206 24.8299ZM19.4108 13.88C19.1037 13.1991 18.2238 11.2508 17.4555 9.55041C16.6871 7.85004 16.0723 6.42285 16.0892 6.37887C16.1279 6.27812 17.1199 6.04311 18.0802 5.90718C18.9431 5.78504 20.8006 5.76968 21.6754 5.87745C22.6887 6.00229 23.9477 6.28398 23.9477 6.38587C23.9477 6.40561 23.3781 7.68364 22.6819 9.22594C21.9858 10.7682 21.1132 12.7023 20.7428 13.5239C20.3725 14.3455 20.0469 15.0403 20.0193 15.0679C19.9917 15.0955 19.7178 14.561 19.4108 13.88Z" fill="#464646"/>
</svg>
