<svg width="40" height="40" viewBox="0 0 40 40" fill="none" xmlns="http://www.w3.org/2000/svg">
<path d="M0.00598497 39.8959C0.0265276 39.8384 0.657565 37.5443 1.40829 34.7978L2.77325 29.8042L2.21661 28.6577C0.83847 25.8193 0.259956 23.4882 0.17612 20.4359C0.10699 17.9191 0.383398 15.9369 1.1116 13.7274C2.17876 10.4894 3.76356 7.96604 6.2377 5.56547C9.21731 2.67445 12.7973 0.890924 17.0284 0.189651C18.1523 0.00337778 20.5383 -0.0593227 21.8414 0.0631739C29.3223 0.766459 35.6936 5.56167 38.4981 12.5996C38.9371 13.7012 39.3491 15.1955 39.5962 16.5816C39.8538 18.0271 39.8783 21.3931 39.6416 22.8331C38.1724 31.7727 31.1616 38.5256 22.2496 39.5856C21.1819 39.7125 18.8177 39.7121 17.7385 39.5847C15.4891 39.3193 12.5553 38.4339 10.9472 37.5351C10.7424 37.4206 10.53 37.327 10.4753 37.327C10.4205 37.327 8.08508 37.9284 5.2855 38.6634C2.48592 39.3983 0.144345 39.9998 0.0819967 40C0.0196484 40.0001 -0.0145572 39.9533 0.00598497 39.8959Z" fill="#43C553"/>
<path d="M23.9453 29.2695C23.2136 29.1163 21.8602 28.6512 20.6106 28.1234C17.4441 26.7861 14.4847 24.1969 11.8906 20.494C11.142 19.4254 10.5457 18.2813 10.2143 17.2778C10.0041 16.6409 9.97936 16.4471 9.97463 15.3982C9.96889 14.1252 10.1069 13.4985 10.5724 12.6832C10.9138 12.0853 11.625 11.2417 12.0167 10.9699C12.3589 10.7325 12.4261 10.7186 13.3571 10.6923C14.7125 10.6541 14.6174 10.5498 15.7778 13.3465C16.2818 14.5613 16.6942 15.6252 16.6942 15.7106C16.6942 15.9629 16.4613 16.3461 15.7215 17.3112C15.3376 17.812 15.0234 18.3032 15.0234 18.4029C15.0234 18.8253 16.2934 20.6103 17.3655 21.6947C18.5635 22.9065 19.7571 23.7218 21.5067 24.5236C22.5169 24.9865 22.5644 24.9832 23.0985 24.4112C23.3513 24.1406 23.8242 23.5706 24.1493 23.1446C24.8028 22.2885 24.9487 22.2065 25.5377 22.3641C26.0404 22.4985 29.824 24.3467 29.956 24.5222C30.1831 24.8244 29.9916 26.325 29.6259 27.1083C29.2938 27.8197 28.0203 28.7652 26.886 29.1425C26.1861 29.3754 24.7475 29.4375 23.9453 29.2695Z" fill="white"/>
</svg>
